<svg id="eipKCOkcaXz1" xmlns="http://www.w3.org/2000/svg" xmlns:xlink="http://www.w3.org/1999/xlink" viewBox="0 0 256 256" shape-rendering="geometricPrecision" text-rendering="geometricPrecision" width="256" height="256"><ellipse rx="128" ry="128" transform="translate(128 128)" fill="#fff" stroke-width="0"/><g transform="matrix(.697258 0 0 0.613643-100.879547 40.263258)"><g transform="translate(43.758252 20.712885)"><g transform="translate(190.410522 83.048688)"><g transform="translate(-114.525405 24.255685)"><path d="M232.053622,167.78097h.667578c-16.566-.00299-29.99447-13.4333-29.99447-30c0-16.56854,13.43146-30,30-30l-.673108,60Z" transform="matrix(0 1-1 0 433.726992-195.067114)" fill="#3f3f46" stroke-width="0"/><path d="M232.72672,167.78097h-.00552c-16.566-.00299-29.99447-13.4333-29.99447-30c0-16.56854,13.43146-30,30-30l-.00001,60Z" transform="matrix(-1 0 0-1 528.672753 175.440586)" fill="#3f3f46" stroke-width="0"/></g><g transform="matrix(0 1-1 0 161.702927-85.016607)"><path d="M232.72672,167.78097h-.00552c-16.566-.00299-29.99447-13.4333-29.99447-30c0-16.56854,13.43146-30,30-30l-.00001,60Z" transform="matrix(0 1-1 0 329.712878-252.444416)" fill="#3f3f46" stroke-width="0"/><path d="M232.72672,167.78097h-.00552c-16.566-.00299-29.99447-13.4333-29.99447-30c0-16.56854,12.876657-30.000004,29.445197-30.000004l.554793,60.000004Z" transform="matrix(-1 0 0-1 424.658629 118.063282)" fill="#3f3f46" stroke-width="0"/></g><path d="M31.06255,112.59001l15.002131-3.296406-.002131,18.293006c-.00184-8.28271-6.71686-14.9966-15-14.9966c0,0,0,0,0,0Z" transform="translate(135.355928-50.674701)" fill="#3f3f46" stroke-width="0"/><path d="M31.06255,112.59001l18.444895-3.426189L46.06255,127.58661c-.00184-8.28271-6.71686-14.9966-15-14.9966c0,0,0,0,0,0Z" transform="matrix(0 1-1 0 294.010628 60.852758)" fill="#3f3f46" stroke-width="0"/><path d="M61.57642,168.60896v-133.94832l30-1.05168v135h-30Z" transform="translate(38.42358 48.30635)" fill="#3f3f46" stroke-width="0"/><rect width="38.338038" height="28.125018" rx="0" ry="0" transform="matrix(0 1.173769-1.066666 0 211.39 61.915296)" fill="#3f3f46" stroke-width="0"/><rect width="22.483129" height="28.125018" rx="0" ry="0" transform="matrix(1.173769 0 0 1.066666 155 106.915297)" fill="#3f3f46" stroke-width="0"/><rect width="22.483129" height="28.125018" rx="0" ry="0" transform="matrix(1.173769 0 0 1.066666 155 31.915323)" fill="#3f3f46" stroke-width="0"/><ellipse rx="15" ry="15" transform="translate(155 121.915297)" fill="#3f3f46" stroke-width="0"/><ellipse rx="15" ry="15" transform="translate(155 46.91531)" fill="#3f3f46" stroke-width="0"/><ellipse rx="15" ry="15" transform="translate(115 216.91531)" fill="#3f3f46" stroke-width="0"/></g></g><g transform="translate(-12.701577-56.493807)"><g transform="translate(206.870375-13.608986)"><path d="M61.57642,203.60896v-170h30v170h-30Z" transform="translate(-1.57642 14.999999)" fill="#09090b" stroke-width="0"/><rect width="22.483129" height="30" rx="0" ry="0" transform="matrix(1.173769 0 0 1 114.999986 33.608959)" fill="#09090b" stroke-width="0"/><rect width="30" height="161.120292" rx="0" ry="0" transform="matrix(1 0 0 0.868916 141.389986 63.608952)" fill="#09090b" stroke-width="0"/><rect width="15" height="17.262888" rx="0" ry="0" transform="matrix(1 0 0 0.868916 137.611897 53.729858)" fill="#09090b" stroke-width="0"/><rect width="22.483129" height="28.125018" rx="0" ry="0" transform="matrix(1.173769 0 0 1.066666 114.999986 203.608951)" fill="#09090b" stroke-width="0"/><g transform="translate(-84.968742-14.996612)"><path d="M231.511021,167.78097h1.210179c-16.566-.00299-29.99447-13.4333-29.99447-30c0-16.56854,13.43146-30,30-30l-1.215709,60Z" transform="matrix(0 1-1 0 364.139695-154.121172)" fill="#09090b" stroke-width="0"/><path d="M232.72672,167.78097h-.00552c-16.566-.00299-29.99447-30-29.99447-30s13.43146-30,30-30l-.00001,60Z" transform="matrix(-1 0 0-1 459.085457 216.386528)" fill="#09090b" stroke-width="0"/></g><g transform="matrix(0 1-1 0 219.99555-22.749774)"><path d="M232.72672,167.78097h-.00552c-16.566-.00299-29.99447-13.4333-29.99447-30c0-16.56854,13.43146-30,30-30l-.00001,60Z" transform="matrix(0 1-1 0 364.139695-154.121172)" fill="#09090b" stroke-width="0"/><path d="M232.72672,167.78097h-.00552c-16.566-.00299-29.99447-13.4333-29.99447-30c0-16.56854,13.43146-30,30-30l-.00001,60Z" transform="matrix(-1 0 0-1 459.085457 216.386528)" fill="#09090b" stroke-width="0"/></g><ellipse rx="15" ry="15" transform="translate(114.999986 48.608959)" fill="#09090b" stroke-width="0"/><ellipse rx="15" ry="15" transform="translate(75 218.60896)" fill="#09090b" stroke-width="0"/><ellipse rx="15" ry="15" transform="translate(75 49)" fill="#09090b" stroke-width="0"/><path d="M31.06255,112.59001h15v14.9966c-.00184-8.28271-6.71686-14.9966-15-14.9966c0,0,0,0,0,0Z" transform="translate(95.327434-48.981064)" fill="#09090b" stroke-width="0"/><path d="M31.06255,112.59001h15v14.9966c-.00184-8.28271-6.71686-14.9966-15-14.9966c0,0,0,0,0,0Z" transform="matrix(0 1-1 0 253.979996 157.546402)" fill="#09090b" stroke-width="0"/></g></g><g transform="translate(107.645987-16.880344)"><g transform="translate(66.522787-30.39104)"><path d="M61.57642,203.60896v-170h30v170h-30Z" transform="translate(58.42358 31.39104)" fill="#a1a1aa" stroke-width="0"/><rect width="35.262475" height="28.125018" rx="0" ry="0" transform="matrix(1.173769 0 0 1.066666 175 219.999991)" fill="#a1a1aa" stroke-width="0"/><ellipse rx="15" ry="15" transform="translate(216.39 234.999991)" fill="#a1a1aa" stroke-width="0"/><ellipse rx="15" ry="15" transform="translate(175 235)" fill="#a1a1aa" stroke-width="0"/><ellipse rx="15" ry="15" transform="translate(135 65)" fill="#a1a1aa" stroke-width="0"/><ellipse rx="15" ry="15" transform="translate(135 235)" fill="#a1a1aa" stroke-width="0"/></g></g></g></svg>
