<svg data-v-423bf9ae="" xmlns="http://www.w3.org/2000/svg" viewBox="0 0 217.3705311079581 60" class="font"><!----><!----><defs data-v-423bf9ae=""><linearGradient data-v-423bf9ae="" gradientTransform="rotate(25)" id="4f63eef3-d4a0-4398-b1e9-79cc2169baf9" x1="0%" y1="0%" x2="100%" y2="0%"><stop data-v-423bf9ae="" offset="0%" style="stop-color: rgb(150, 138, 191); stop-opacity: 1;"></stop><stop data-v-423bf9ae="" offset="100%" style="stop-color: rgb(228, 168, 170); stop-opacity: 1;"></stop></linearGradient></defs><g data-v-423bf9ae="" id="cb953eb1-6ff9-4618-8981-509887c4c5dd" fill="url(#4f63eef3-d4a0-4398-b1e9-79cc2169baf9)" transform="matrix(7.968127772605533,0,0,7.968127772605533,-1.115537294868929,-19.681276541561367)"><path d="M2.79 7.98L2.97 8.59L4.16 8.59L4.16 2.47L3.80 2.47L2.15 2.71L2.15 3.22L2.66 3.39L2.66 4.81L2.66 4.81Q2.49 4.71 2.25 4.65L2.25 4.65L2.25 4.65Q2.01 4.58 1.71 4.58L1.71 4.58L1.71 4.58Q1.20 4.58 0.84 4.86L0.84 4.86L0.84 4.86Q0.48 5.14 0.31 5.60L0.31 5.60L0.31 5.60Q0.14 6.06 0.14 6.65L0.14 6.65L0.14 6.65Q0.14 7.59 0.50 8.12L0.50 8.12L0.50 8.12Q0.86 8.64 1.63 8.64L1.63 8.64L1.63 8.64Q1.83 8.64 2.02 8.59L2.02 8.59L2.02 8.59Q2.20 8.53 2.32 8.46L2.32 8.46L2.32 8.46Q2.44 8.38 2.55 8.28L2.55 8.28L2.55 8.28Q2.66 8.18 2.70 8.12L2.70 8.12L2.70 8.12Q2.75 8.05 2.79 7.98L2.79 7.98ZM2.31 7.73L2.31 7.73L2.31 7.73Q2.08 7.73 1.92 7.50L1.92 7.50L1.92 7.50Q1.77 7.28 1.77 6.84L1.77 6.84L1.77 6.19L1.77 6.19Q1.77 5.24 2.39 5.23L2.39 5.23L2.39 5.23Q2.52 5.23 2.66 5.26L2.66 5.26L2.66 7.61L2.66 7.61Q2.58 7.67 2.49 7.70L2.49 7.70L2.49 7.70Q2.40 7.73 2.31 7.73ZM6.76 8.22L6.80 8.17L6.95 8.59L8.23 8.59L8.10 8.22L8.10 6.32L8.10 6.32Q8.10 5.81 8.02 5.48L8.02 5.48L8.02 5.48Q7.94 5.14 7.75 4.93L7.75 4.93L7.75 4.93Q7.56 4.71 7.26 4.62L7.26 4.62L7.26 4.62Q6.96 4.53 6.49 4.53L6.49 4.53L6.49 4.53Q5.96 4.53 5.46 4.68L5.46 4.68L5.46 4.68Q4.95 4.84 4.63 5.04L4.63 5.04L4.93 5.68L4.93 5.68Q5.11 5.59 5.42 5.52L5.42 5.52L5.42 5.52Q5.73 5.45 6.02 5.45L6.02 5.45L6.02 5.45Q6.36 5.45 6.51 5.57L6.51 5.57L6.51 5.57Q6.66 5.68 6.66 5.97L6.66 5.97L6.66 6.05L6.66 6.05Q6.50 6.05 6.33 6.07L6.33 6.07L6.33 6.07Q6.16 6.08 5.94 6.12L5.94 6.12L5.94 6.12Q5.72 6.16 5.52 6.23L5.52 6.23L5.52 6.23Q5.32 6.29 5.12 6.40L5.12 6.40L5.12 6.40Q4.93 6.51 4.79 6.65L4.79 6.65L4.79 6.65Q4.65 6.79 4.56 6.99L4.56 6.99L4.56 6.99Q4.47 7.20 4.47 7.44L4.47 7.44L4.47 7.44Q4.47 8.68 5.73 8.68L5.73 8.68L5.73 8.68Q5.92 8.68 6.09 8.63L6.09 8.63L6.09 8.63Q6.27 8.58 6.40 8.50L6.40 8.50L6.40 8.50Q6.52 8.43 6.61 8.35L6.61 8.35L6.61 8.35Q6.71 8.28 6.76 8.22L6.76 8.22ZM6.44 7.86L6.44 7.86L6.44 7.86Q6.04 7.86 6.04 7.28L6.04 7.28L6.04 7.28Q6.04 6.95 6.21 6.80L6.21 6.80L6.21 6.80Q6.37 6.64 6.66 6.64L6.66 6.64L6.66 7.76L6.66 7.76Q6.66 7.76 6.63 7.79L6.63 7.79L6.63 7.79Q6.60 7.81 6.55 7.84L6.55 7.84L6.55 7.84Q6.50 7.86 6.44 7.86ZM8.69 8.59L10.20 8.59L10.20 5.87L10.20 5.87Q10.21 5.86 10.24 5.84L10.24 5.84L10.24 5.84Q10.26 5.81 10.27 5.81L10.27 5.81L10.27 5.81Q10.29 5.80 10.31 5.77L10.31 5.77L10.31 5.77Q10.34 5.75 10.35 5.74L10.35 5.74L10.35 5.74Q10.36 5.74 10.39 5.72L10.39 5.72L10.39 5.72Q10.41 5.70 10.43 5.70L10.43 5.70L10.43 5.70Q10.45 5.69 10.47 5.68L10.47 5.68L10.47 5.68Q10.50 5.67 10.52 5.66L10.52 5.66L10.52 5.66Q10.54 5.66 10.57 5.65L10.57 5.65L10.57 5.65Q10.59 5.65 10.62 5.65L10.62 5.65L10.62 5.65Q11.01 5.65 10.99 6.09L10.99 6.09L10.99 8.59L12.53 8.59L12.53 6.22L12.53 6.22Q12.53 6.19 12.54 6.13L12.54 6.13L12.54 6.13Q12.54 6.08 12.54 6.05L12.54 6.05L12.54 6.05Q12.54 5.23 12.28 4.88L12.28 4.88L12.28 4.88Q12.01 4.53 11.37 4.53L11.37 4.53L11.37 4.53Q11.19 4.53 11.00 4.60L11.00 4.60L11.00 4.60Q10.81 4.67 10.68 4.77L10.68 4.77L10.68 4.77Q10.54 4.87 10.43 4.97L10.43 4.97L10.43 4.97Q10.32 5.08 10.27 5.15L10.27 5.15L10.21 5.22L10.21 4.62L9.42 4.62L8.41 4.90L8.41 5.39L8.69 5.57L8.69 8.59ZM13.12 5.57L13.12 8.59L14.63 8.59L14.63 4.62L13.85 4.62L12.84 4.90L12.84 5.39L13.12 5.57ZM13.03 3.42L13.80 4.19L13.98 4.19L14.77 3.42L14.77 3.26L13.98 2.49L13.80 2.49L13.03 3.26L13.03 3.42ZM17.37 6.17L17.37 6.17L16.66 6.17L16.66 5.78L16.66 5.78Q16.66 5.61 16.67 5.50L16.67 5.50L16.67 5.50Q16.68 5.39 16.73 5.29L16.73 5.29L16.73 5.29Q16.77 5.18 16.86 5.14L16.86 5.14L16.86 5.14Q16.94 5.09 17.08 5.09L17.08 5.09L17.08 5.09Q17.25 5.09 17.31 5.33L17.31 5.33L17.31 5.33Q17.37 5.58 17.37 6.17ZM17.00 8.68L17.00 8.68L17.00 8.68Q17.28 8.68 17.58 8.62L17.58 8.62L17.58 8.62Q17.89 8.55 18.23 8.37L18.23 8.37L18.23 8.37Q18.56 8.18 18.73 7.90L18.73 7.90L18.46 7.42L18.46 7.42Q18.33 7.55 18.13 7.63L18.13 7.63L18.13 7.63Q17.94 7.72 17.75 7.77L17.75 7.77L17.75 7.77Q17.56 7.81 17.40 7.81L17.40 7.81L17.40 7.81Q17.23 7.81 17.11 7.78L17.11 7.78L17.11 7.78Q17.00 7.75 16.88 7.67L16.88 7.67L16.88 7.67Q16.77 7.58 16.71 7.41L16.71 7.41L16.71 7.41Q16.66 7.23 16.66 6.95L16.66 6.95L16.66 6.86L18.79 6.86L18.79 6.35L18.79 6.35Q18.79 5.39 18.39 4.96L18.39 4.96L18.39 4.96Q17.99 4.53 17.08 4.53L17.08 4.53L17.08 4.53Q16.12 4.53 15.59 5.06L15.59 5.06L15.59 5.06Q15.05 5.60 15.05 6.65L15.05 6.65L15.05 6.65Q15.05 7.08 15.16 7.44L15.16 7.44L15.16 7.44Q15.26 7.80 15.48 8.08L15.48 8.08L15.48 8.08Q15.70 8.37 16.09 8.53L16.09 8.53L16.09 8.53Q16.47 8.68 17.00 8.68ZM19.24 3.31L19.24 8.59L20.76 8.59L20.76 2.47L20.46 2.47L18.96 2.71L18.96 3.14L19.24 3.31ZM21.33 3.31L21.33 8.59L22.85 8.59L22.85 2.47L22.54 2.47L21.05 2.71L21.05 3.14L21.33 3.31ZM25.85 8.59L25.85 8.59L25.85 8.59Q26.24 8.59 26.54 8.43L26.54 8.43L26.54 8.43Q26.84 8.26 27.03 7.98L27.03 7.98L27.03 7.98Q27.23 7.70 27.32 7.32L27.32 7.32L27.32 7.32Q27.42 6.95 27.42 6.51L27.42 6.51L27.42 6.51Q27.42 5.58 27.06 5.05L27.06 5.05L27.06 5.05Q26.70 4.53 25.93 4.53L25.93 4.53L25.93 4.53Q25.61 4.53 25.37 4.64L25.37 4.64L25.37 4.64Q25.13 4.76 24.97 4.93L24.97 4.93L24.97 4.62L24.19 4.62L23.18 4.90L23.18 5.39L23.46 5.57L23.46 10.00L24.97 10.00L24.97 8.39L24.97 8.39Q25.13 8.47 25.36 8.53L25.36 8.53L25.36 8.53Q25.58 8.59 25.85 8.59ZM25.17 7.94L25.17 7.94L25.17 7.94Q25.12 7.94 25.07 7.93L25.07 7.93L25.07 7.93Q25.02 7.93 24.97 7.91L24.97 7.91L24.97 5.45L24.97 5.45Q25.13 5.36 25.28 5.36L25.28 5.36L25.28 5.36Q25.51 5.36 25.65 5.56L25.65 5.56L25.65 5.56Q25.79 5.77 25.79 6.19L25.79 6.19L25.79 6.98L25.79 6.98Q25.79 7.94 25.17 7.94Z"></path></g><!----><!----></svg>